<svg width="300" height="300" viewBox="0 0 300 300" fill="none" xmlns="http://www.w3.org/2000/svg">
<rect width="300" height="300" fill="#F5F5F5"/>
<path d="M0 0H300V300H0V0Z" fill="black"/>
<g clip-path="url(#clip0_0_1)">
<path d="M111.538 205.083H27.2436L46.7949 93.9167H131.41C131.09 93.9167 111.538 205.083 111.538 205.083Z" fill="#0B0B0B"/>
<path d="M56.7308 131.292L54.8077 132.25L53.2051 131.931C53.2051 130.972 56.4103 129.694 56.7308 131.292ZM91.0256 171.861C90.7051 171.861 90.7051 171.861 90.3846 172.181C90.0641 172.819 89.4231 173.139 89.1026 173.778C89.1026 174.097 88.7821 174.097 88.4615 174.097C85.8974 173.778 83.6539 174.736 81.4103 175.375C81.0897 175.375 80.4487 175.694 80.1282 175.056V173.778C80.1282 173.458 79.8077 173.139 79.4872 173.139C79.1667 173.139 78.5256 173.139 78.5256 173.778C77.8846 175.375 77.5641 176.972 77.5641 178.569C77.5641 179.528 78.8462 179.847 79.4872 179.847C82.6923 179.208 86.218 178.569 89.4231 177.931C89.7436 177.931 89.7436 177.611 90.0641 177.611C90.3846 176.333 90.7051 174.736 91.3462 173.458C91.9872 172.5 91.3462 172.181 91.0256 171.861ZM81.7308 164.194C82.3718 164.514 83.3333 164.194 83.3333 163.556C83.6539 162.278 83.6538 161 83.9744 159.722C83.9744 159.722 91.0256 156.847 92.3077 157.806C92.3077 157.806 92.6282 157.806 92.3077 158.125L91.6667 161.319V161.639C91.9872 161.958 92.6282 162.278 92.9487 161.639C93.5898 159.722 94.5513 158.125 95.1923 156.208V155.889C93.2692 154.931 91.0256 155.25 89.1026 155.889C86.5385 156.528 83.9744 157.806 81.7308 159.403L81.4103 159.722C81.0897 161 80.7692 161.958 80.4487 163.236C81.4103 163.236 81.0897 163.875 81.7308 164.194ZM45.1923 92L25 207H113.141L133.333 92H45.1923ZM81.0897 95.5139C85.2564 99.3472 86.859 105.417 79.1667 114.681C74.6795 113.403 69.8718 111.806 60.2564 112.764C61.859 104.139 58.6538 98.7083 53.8462 95.5139H81.0897ZM56.7308 132.569C56.0897 132.889 55.4487 133.208 54.8077 133.208C51.2821 133.208 46.7949 128.736 46.7949 128.736C47.7564 128.417 48.3974 128.736 49.359 129.375C50 129.694 50.641 130.333 51.2821 130.014C53.2051 128.736 55.1282 127.458 57.3718 126.5C59.2949 125.542 62.1795 125.542 63.7821 127.139C65.3846 128.736 66.9872 129.694 68.9103 130.653C70.5128 131.611 71.7949 132.25 73.718 132.569C73.718 132.569 73.0769 134.486 74.0385 136.083C73.718 136.083 73.3974 136.083 73.3974 135.764C72.7564 134.806 72.4359 134.486 72.1154 133.847C70.8333 132.569 68.9103 131.931 66.9872 131.611C63.141 130.972 59.6154 131.292 56.7308 132.569ZM63.141 145.028C60.8974 145.986 58.6538 147.264 56.4103 148.542C54.4872 150.139 52.8846 152.056 51.9231 154.611C50.641 157.806 50.3205 161.319 50 164.833C50 165.153 49.6795 165.153 49.6795 164.833C47.4359 159.722 46.1538 153.972 46.1538 148.222C46.1538 145.667 46.1538 142.792 46.7949 140.236C46.7949 140.236 46.7949 139.917 47.1154 140.236C48.718 141.833 50.9615 143.111 53.2051 143.75C56.4103 144.708 59.9359 145.028 63.141 144.708C63.4615 144.708 63.4615 145.028 63.141 145.028ZM48.0769 95.5139H49.6795C53.5256 98.0694 56.7308 101.583 57.6923 105.736C59.9359 114.361 53.8462 117.236 43.9103 120.431L48.0769 95.5139ZM29.1667 203.486L38.7821 148.542C41.0256 160.042 46.1538 165.792 49.359 174.736C51.2821 179.847 50.9615 185.278 50.3205 189.111C49.359 193.583 46.7949 198.056 41.3462 203.486H29.1667ZM66.6667 203.486H45.8333C48.0769 201.25 49.6795 198.694 50.9615 196.139C53.5256 190.389 52.5641 185.917 53.5256 178.569C54.4872 170.583 57.3718 165.792 60.5769 160.042C61.859 157.167 63.7821 154.611 65.7051 152.375C66.9872 151.097 68.2692 149.819 69.5513 148.861L70.5128 148.222C70.5128 148.222 71.4744 147.583 71.7949 148.542C72.1154 149.5 70.8333 150.139 69.8718 150.778C66.9872 152.375 64.7436 154.931 63.141 157.486C61.2179 160.361 60.2564 163.875 60.2564 167.389C59.9359 172.819 61.859 177.931 64.4231 182.403C64.7436 182.722 70.8333 193.583 66.6667 203.486ZM85.5769 203.486H69.5513C70.8333 201.25 71.4744 199.014 72.1154 196.458C72.7564 193.264 73.3974 189.75 72.1154 186.556C75.641 187.514 79.4872 187.833 83.0128 186.875C85.2564 186.236 86.5385 185.917 89.1026 183.681C92.3077 179.847 89.1026 179.847 89.1026 179.847C87.5 179.847 86.218 180.167 84.6154 180.486C82.6923 180.806 80.7692 181.125 78.8462 181.125C76.9231 181.125 75.3205 181.125 73.3974 180.167C71.4744 178.889 69.8718 177.292 68.2692 175.694C60.2564 164.833 68.9103 154.611 68.9103 154.611C69.5513 153.653 70.5128 153.014 71.7949 152.694C72.1154 152.694 72.4359 152.375 72.7564 152.694C72.7564 153.014 72.1154 153.333 71.7949 153.653C71.4744 153.972 71.4744 154.611 71.7949 154.931C72.4359 155.25 72.7564 155.25 73.3974 155.25C74.359 155.569 75.641 156.208 76.2821 156.847C77.2436 157.486 77.5641 158.125 78.8462 158.444C79.8077 158.444 81.4103 157.806 82.3718 157.167C83.0128 156.528 83.9744 155.889 84.9359 155.569C86.859 154.611 88.7821 153.972 90.7051 153.014C91.6667 152.694 92.6282 152.375 93.2692 151.736C93.5897 152.375 94.5513 153.653 95.1923 153.972C96.1538 154.292 96.7949 153.972 98.0769 153.972C99.359 155.25 100.321 157.167 100.962 159.083C101.923 162.597 102.244 166.111 102.244 169.625C101.923 177.292 99.6795 184.958 95.8333 191.667C95.5128 191.667 91.9872 197.736 85.5769 203.486ZM108.333 181.125C104.167 188.472 95.8333 197.097 92.9487 199.333C116.026 170.264 99.6795 149.5 99.6795 149.5C100.641 146.625 99.6795 143.431 98.3974 142.472H98.0769C96.1538 143.75 95.5128 146.625 94.2308 146.944C93.5897 146.944 93.2692 146.306 92.6282 145.986C91.6667 145.028 90.7051 144.069 89.4231 143.431C87.8205 142.472 86.218 141.514 84.2949 140.875C83.9744 140.556 83.3333 140.556 83.0128 140.236C83.0128 139.597 83.9744 139.597 84.2949 139.597C87.1795 139.597 89.7436 141.514 92.6282 141.514C93.9103 141.514 94.8718 141.514 95.8333 140.875C96.4744 140.556 96.7949 139.917 96.7949 139.278C96.7949 138 96.1538 136.722 94.8718 136.083C93.9103 135.764 92.9487 136.083 92.3077 135.444C91.9872 135.125 91.6667 134.486 91.9872 134.167C91.9872 133.528 92.3077 132.569 91.9872 131.931C91.3462 130.972 90.3846 130.653 89.4231 130.333C87.5 129.694 85.5769 128.417 83.6538 127.139C83.0128 126.819 82.0513 125.861 81.7308 125.222C81.4103 124.264 81.7308 123.625 82.0513 122.667C82.3718 122.028 83.6538 122.347 83.9744 122.986C83.9744 122.986 85.2564 126.819 87.1795 128.097C89.4231 129.694 89.1026 125.861 89.1026 125.861C89.1026 119.792 80.7692 115.319 80.7692 115.319C82.0513 111.486 85.8974 108.931 89.7436 108.292C93.5898 107.653 97.4359 107.972 101.923 109.569C98.0769 110.208 93.9103 111.486 91.3462 114.361C94.5513 113.403 98.0769 114.042 100.962 115.319C103.846 116.597 107.051 119.472 109.295 122.986C113.782 130.014 114.103 138.639 113.782 146.944C112.5 143.75 108.974 139.597 105.449 138.639C117.949 148.861 115.385 168.667 108.333 181.125Z" fill="#B19661"/>
<path d="M171.154 131.292C171.154 138.958 166.667 146.944 152.885 146.944H131.41L140.385 96.4722H160.256C166.667 96.4722 173.718 98.3889 173.718 108.292C173.718 116.278 168.91 120.431 163.462 121.069C168.269 121.708 171.154 124.903 171.154 131.292ZM157.372 130.014C157.372 126.819 156.09 125.222 152.244 125.222H148.397L146.154 138H150.321C156.09 138 157.372 133.847 157.372 130.014ZM160.256 109.889C160.256 106.375 158.654 105.417 156.09 105.417H152.244L150 116.917H153.846C158.654 116.917 160.256 112.764 160.256 109.889ZM192.949 107.333L191.346 115.639H207.372L205.449 126.5H189.423L187.5 136.083H205.128L203.205 146.944H172.436L181.41 96.4722H211.859L209.936 107.333H192.949ZM250.641 107.333H238.782L231.731 146.944H218.269L225.321 107.333H213.462L215.385 96.4722H252.564L250.641 107.333Z" fill="white"/>
<path d="M148.397 184.319L159.936 153.014H178.205L169.231 203.167H157.372L164.103 166.111H163.782L150 203.167H140.385L139.103 166.431H138.782L132.692 203.167H121.474L130.449 152.694H147.756L148.397 184.319ZM245.192 184.319L256.731 153.014H275L266.026 203.486H254.167L260.897 166.431H260.577L246.795 203.486H236.859L235.577 166.75H235.256L229.167 203.486H217.949L227.244 152.694H244.551L245.192 184.319ZM177.244 185.278C177.244 174.736 180.449 151.736 201.603 151.736C216.346 151.736 221.795 158.125 220.192 168.986H207.692C208.333 164.833 206.41 161.319 201.603 161C192.308 160.681 188.782 176.972 188.782 184.639C188.782 192.944 192.628 194.861 196.154 194.861C200.641 194.861 203.526 192.306 204.808 187.514L205.449 184.319H197.436L199.038 174.736H219.231L214.103 203.486H204.487L205.769 196.139C203.526 201.569 199.679 204.764 192.949 204.764C186.218 204.444 177.244 202.208 177.244 185.278Z" fill="#B19661"/>
</g>
<defs>
<clipPath id="clip0_0_1">
<rect width="250" height="115" fill="white" transform="translate(25 92)"/>
</clipPath>
</defs>
</svg>
