<svg alt="DraftKings App Logo" width="140" height="139" xmlns="http://www.w3.org/2000/svg" xmlns:xlink="http://www.w3.org/1999/xlink">
  <defs>
    <filter x="-65.7%" y="-66.5%" width="231.4%" height="232.9%" filterUnits="objectBoundingBox" id="a">
      <feOffset dy="2" in="SourceAlpha" result="shadowOffsetOuter1"></feOffset>
      <feGaussianBlur stdDeviation="13.5" in="shadowOffsetOuter1" result="shadowBlurOuter1"></feGaussianBlur>
      <feColorMatrix values="0 0 0 0 1 0 0 0 0 1 0 0 0 0 1 0 0 0 1 0" in="shadowBlurOuter1" result="shadowMatrixOuter1"></feColorMatrix>
      <feMerge>
        <feMergeNode in="shadowMatrixOuter1"></feMergeNode>
        <feMergeNode in="SourceGraphic"></feMergeNode>
      </feMerge>
    </filter>
    <path d="M11.81 0h62.38C80.713 0 86 5.287 86 11.81v61.38C86 79.713 80.713 85 74.19 85H11.81C5.287 85 0 79.713 0 73.19V11.81C0 5.287 5.287 0 11.81 0z" id="b"></path>
  </defs>
  <g filter="url(#a)" transform="translate(27 25)" fill="none" fill-rule="evenodd">
    <mask id="c" fill="#fff"><use xlink:href="#b"></use></mask>
    <use fill="#D8D8D8" xlink:href="#b"></use>
    <g fill-rule="nonzero" mask="url(#c)">
      <path fill="#212121" d="M-1.323 0h87.985v87.636H-1.323z"></path>
      <path d="M68.02 16.635a5.607 5.607 0 00-3.297 4.798l-.005.002a5.684 5.684 0 00-5.337-.634c.072.234.158.463.259.686a5.62 5.62 0 003.488 3.034 11.019 11.019 0 01-3.285 3.263c-.559.386-1.183.54-1.907.626a4.31 4.31 0 01-4.287-2.204 4.313 4.313 0 01-5.422 1.845 10.94 10.94 0 01-5.07-6.462l.095-.008a5.642 5.642 0 004.49-3.195 5.671 5.671 0 00-5.482-.688c.058-1.964-1.429-4.92-3.252-5.995a7.292 7.292 0 00-.718-.356l-.16-.066-.112.14a5.656 5.656 0 00-.394.578c-1.076 1.815-.78 5.072.226 6.767a5.633 5.633 0 00-4.468 3.222c.153.11.311.212.474.306a5.67 5.67 0 005.01.348l.088-.036a10.83 10.83 0 01-.616 6.755l-.008-.03c-.015.053-.034.108-.05.164a10.529 10.529 0 01-.734 1.368 4.32 4.32 0 01-5.671.94 4.264 4.264 0 01-2.725 3.952c-.382.15-.784.243-1.193.278a11.155 11.155 0 01-5.077-1.318 5.551 5.551 0 001.582-4.325c-.02-.247-.056-.702-.105-.937-1.949.243-3.558 1.966-4.37 2.892h-.003c-1.077-.926-3.055-2.578-5.22-2.415-.51.038-.988.268-1.448.43a72.794 72.794 0 016.896 5.83 72.975 72.975 0 014.394 4.584c1.946 2.206 5.269 6.665 5.272 6.662.409.569 2.073 1.301 3.198 1.191a.316.316 0 00.27-.295c.015-.116-.188-.186-.293-.233-.981-.426-1.344-.943-1.61-1.771-.625-1.944 5.239-5.453 13.81-7.611 8.571-2.158 15.458-1.894 15.856.112.168.854.103 1.48-.551 2.322-.07.09-.214.25-.141.346a.32.32 0 00.38.133c1.039-.441 2.144-1.874 2.227-2.565 0 0 .92-5.525 1.553-8.388a71.331 71.331 0 014.87-14.451 5.64 5.64 0 00-1.425.408" fill="#F7760D"></path>
      <path d="M37.737 43.023s6.812-3.053 14.494-3.958c0 0 9.732.95 9.732 12.277 0 11.328-8.126 17.795-19.187 17.795-11.06 0-16.891-4.834-16.891-9.984s3.733-5.97 5.47-5.97c1.736 0 4.874 1.554 4.874 5.59 0 0-3.125-.761-3.125 1.92 0 2.68 3.695 4.35 8.761 4.35 5.067 0 12.218-2.201 12.218-12.008 0-10.463-4.882-10.93-8.277-10.93v17.948s.09 1.578 1.776 1.578c0 0-1.786 1.494-6.203 1.494s-5.676-1.406-5.676-1.406 2.09.008 2.09-1.821-.056-16.875-.056-16.875" fill="#61B510"></path>
    </g>
  </g>
</svg>