<?xml version="1.0" encoding="utf-8"?><!-- Uploaded to: SVG Repo, www.svgrepo.com, Generator: SVG Repo Mixer Tools -->
<svg width="800px" height="800px" viewBox="0 0 192 192" xmlns="http://www.w3.org/2000/svg" fill="none"><path stroke="#000000" stroke-width="12" d="m30.409 85.034-8.671 78.306A6 6 0 0 0 27.7 170h120.427a6 6 0 0 0 5.963-5.34l2.838-25.627a6 6 0 0 0-5.963-6.66h-65.55c-3.65 0-6.455-3.232-5.94-6.846l.791-5.559a6 6 0 0 1 5.94-5.154h68.033a6 6 0 0 0 5.963-5.34l2.56-23.119a6 6 0 0 0-5.963-6.66H36.372a6 6 0 0 0-5.963 5.34ZM164.211 22H43.803a6 6 0 0 0-5.954 5.263L34.502 54.29a6 6 0 0 0 5.954 6.737h120.409a6 6 0 0 0 5.954-5.263l3.346-27.027A6 6 0 0 0 164.211 22Z"/></svg>