<?xml version="1.0" encoding="UTF-8"?>
<svg id="uuid-ccecfc85-e84a-4f70-87ca-d86988761837" data-name="Layer 2" xmlns="http://www.w3.org/2000/svg" width="479" height="478.1" viewBox="0 0 479 478.1">
  <g id="uuid-04a1b9c6-df54-4e7b-ad2a-c33bf5f99a26" data-name="uuid-3f486d5c-118e-4a7c-b9b4-017c9735d38a">
    <g>
      <path d="M241.67,477.76c141.36-82.77,237.33-237.06,237.33-411.39,0-1.41-.75-2.73-1.97-3.43C418.5,29.33,349.87,7.2,277.81,1.5c-1.39-.11-2.75,.5-3.6,1.61-18.76,24.61-34.97,51.27-48.22,79.58-.44,.95,.27,2.03,1.32,2,4.05-.12,8.11-.19,12.19-.19,53.78,0,105.04,10.77,151.75,30.25-13.71,106.9-70.2,200.41-151.75,262.82-16.65-12.74-32.25-26.78-46.66-41.96-.95-1-2.62-.18-2.4,1.17,7.95,50.01,24.39,97.2,47.8,140.03,.67,1.22,2.23,1.65,3.44,.95h-.01Z" style="fill: #1493ff;"/>
      <path d="M156.9,291.86c-9.51-13.43-18.22-27.48-26.02-42.08,7.89-3.75,16-7.09,24.31-10.03,1.52-.54,2.57-1.91,2.67-3.52,1.98-29.72,6.76-58.67,14.06-86.6,.25-.97-.6-1.88-1.59-1.67-24.8,5.15-48.6,13.02-71.08,23.28-5.16-18.33-9.04-37.19-11.51-56.49,32.46-13.54,67.11-22.86,103.27-27.3,1.31-.16,2.43-1.01,2.95-2.22,12.58-29.46,27.48-55.8,46.18-83.19,.59-.86-.03-2.04-1.07-2.04C150.37,.42,72.15,23.17,2.11,62.85c-1.31,.74-2.11,2.15-2.11,3.66C0,216.71,74.87,358.57,189.32,445.61c1.11,.85,2.62-.33,2.09-1.62-19.18-46.76-30.96-97.35-33.88-150.29-.04-.66-.26-1.3-.64-1.84h0Z" style="fill: #1493ff;"/>
    </g>
  </g>
</svg>